<svg width="29" height="28" viewBox="0 0 29 28" fill="none" xmlns="http://www.w3.org/2000/svg">
<g id="&#240;&#159;&#166;&#134; icon &#34;facebook icon&#34;">
<path id="Vector" d="M28.7406 19.8637C28.7406 24.9222 25.7249 27.9378 20.6665 27.9378H19.0127C18.2484 27.9378 17.623 27.3125 17.623 26.5481V18.5296C17.623 18.1544 17.9288 17.8348 18.304 17.8348L20.7498 17.7931C20.9444 17.7792 21.1112 17.6402 21.1529 17.4457L21.6392 14.7914C21.6809 14.5412 21.4864 14.305 21.2223 14.305L18.2623 14.3467C17.8732 14.3467 17.5675 14.0409 17.5536 13.6657L17.498 10.261C17.498 10.0386 17.6786 9.84408 17.9149 9.84408L21.2501 9.78848C21.4864 9.78848 21.667 9.60784 21.667 9.37159L21.6115 6.03631C21.6115 5.80006 21.4308 5.61942 21.1945 5.61942L17.4424 5.67502C15.1355 5.71671 13.3011 7.60667 13.3428 9.91355L13.4123 13.7352C13.4262 14.1243 13.1205 14.43 12.7313 14.4439L11.0637 14.4717C10.8275 14.4717 10.6468 14.6524 10.6468 14.8886L10.6885 17.529C10.6885 17.7653 10.8692 17.946 11.1054 17.946L12.773 17.9182C13.1621 17.9182 13.4679 18.2239 13.4818 18.5991L13.6068 26.5203C13.6207 27.2986 12.9954 27.9378 12.2172 27.9378H9.02087C3.9624 27.9378 0.946777 24.9222 0.946777 19.8498V8.21813C0.946777 3.15967 3.9624 0.144043 9.02087 0.144043H20.6665C25.7249 0.144043 28.7406 3.15967 28.7406 8.21813V19.8637Z" fill="white"/>
</g>
</svg>
