<svg width="29" height="28" viewBox="0 0 29 28" fill="none" xmlns="http://www.w3.org/2000/svg">
<g id="&#240;&#159;&#166;&#134; icon &#34;instagram alt icon&#34;">
<path id="Vector" d="M28.5309 8.33798C28.5139 7.16962 28.2979 6.01051 27.8842 4.91778C27.1604 3.05179 25.6864 1.57629 23.8204 0.853971C22.7416 0.448053 21.601 0.230432 20.4465 0.205737C18.9618 0.139371 18.491 0.12085 14.722 0.12085C10.953 0.12085 10.4699 0.12085 8.99594 0.205737C7.84301 0.230432 6.70243 0.448053 5.62359 0.853971C3.7576 1.57629 2.2821 3.05179 1.55978 4.91778C1.15386 5.99662 0.934699 7.13721 0.913091 8.29013C0.846725 9.77644 0.82666 10.2472 0.82666 14.0162C0.82666 17.7852 0.82666 18.2668 0.913091 19.7423C0.936242 20.8967 1.15386 22.0358 1.55978 23.1177C2.28364 24.9821 3.7576 26.4576 5.62513 27.18C6.69935 27.5998 7.83993 27.8375 8.99749 27.8745C10.4838 27.9409 10.9545 27.9609 14.7235 27.9609C18.4926 27.9609 18.9757 27.9609 20.4496 27.8745C21.6025 27.8513 22.7431 27.6337 23.8235 27.2278C25.6895 26.504 27.1635 25.0284 27.8873 23.164C28.2932 22.0836 28.5109 20.9446 28.534 19.7886C28.6004 18.3038 28.6204 17.8331 28.6204 14.0625C28.6173 10.2935 28.6173 9.81503 28.5309 8.33798ZM14.7127 21.1437C10.7709 21.1437 7.57755 17.9504 7.57755 14.0085C7.57755 10.0666 10.7709 6.87328 14.7127 6.87328C18.6515 6.87328 21.8479 10.0666 21.8479 14.0085C21.8479 17.9504 18.6515 21.1437 14.7127 21.1437ZM22.1319 8.27316C21.2105 8.27316 20.4681 7.52923 20.4681 6.60936C20.4681 5.68948 21.2105 4.94556 22.1319 4.94556C23.0503 4.94556 23.7942 5.68948 23.7942 6.60936C23.7942 7.52923 23.0503 8.27316 22.1319 8.27316Z" fill="white"/>
<path id="Vector_2" d="M14.713 18.6433C17.2728 18.6433 19.3479 16.5682 19.3479 14.0084C19.3479 11.4486 17.2728 9.37354 14.713 9.37354C12.1532 9.37354 10.0781 11.4486 10.0781 14.0084C10.0781 16.5682 12.1532 18.6433 14.713 18.6433Z" fill="white"/>
</g>
</svg>
