<svg width="30" height="23" viewBox="0 0 30 23" fill="none" xmlns="http://www.w3.org/2000/svg">
<path d="M0 2.20027C0 1.71422 0.197544 1.24808 0.549175 0.904387C0.900806 0.560698 1.37772 0.367615 1.875 0.367615H28.125C28.6223 0.367615 29.0992 0.560698 29.4508 0.904387C29.8025 1.24808 30 1.71422 30 2.20027C30 2.68632 29.8025 3.15246 29.4508 3.49615C29.0992 3.83984 28.6223 4.03292 28.125 4.03292H1.875C1.37772 4.03292 0.900806 3.83984 0.549175 3.49615C0.197544 3.15246 0 2.68632 0 2.20027ZM0 11.3635C0 10.8775 0.197544 10.4113 0.549175 10.0677C0.900806 9.72396 1.37772 9.53088 1.875 9.53088H28.125C28.6223 9.53088 29.0992 9.72396 29.4508 10.0677C29.8025 10.4113 30 10.8775 30 11.3635C30 11.8496 29.8025 12.3157 29.4508 12.6594C29.0992 13.0031 28.6223 13.1962 28.125 13.1962H1.875C1.37772 13.1962 0.900806 13.0031 0.549175 12.6594C0.197544 12.3157 0 11.8496 0 11.3635ZM0 20.5268C0 20.0407 0.197544 19.5746 0.549175 19.2309C0.900806 18.8872 1.37772 18.6941 1.875 18.6941H28.125C28.6223 18.6941 29.0992 18.8872 29.4508 19.2309C29.8025 19.5746 30 20.0407 30 20.5268C30 21.0128 29.8025 21.479 29.4508 21.8227C29.0992 22.1664 28.6223 22.3595 28.125 22.3595H1.875C1.37772 22.3595 0.900806 22.1664 0.549175 21.8227C0.197544 21.479 0 21.0128 0 20.5268Z" fill="#F4F4F4"/>
</svg>
