<svg width="26" height="30" viewBox="0 0 26 30" fill="none" xmlns="http://www.w3.org/2000/svg">
<g id="&#240;&#159;&#166;&#134; icon &#34;logo tiktok&#34;">
<path id="Vector" d="M21.9541 6.78727C21.7594 6.68665 21.5699 6.57635 21.3863 6.45677C20.8522 6.10372 20.3626 5.68771 19.9279 5.21771C18.8402 3.97325 18.434 2.71075 18.2844 1.82682H18.2904C18.1654 1.09312 18.2171 0.618408 18.2249 0.618408H13.2711V19.774C13.2711 20.0312 13.2711 20.2853 13.2603 20.5365C13.2603 20.5678 13.2573 20.5966 13.2555 20.6303C13.2555 20.6441 13.2555 20.6585 13.2524 20.6729V20.6837C13.2002 21.371 12.9799 22.035 12.6109 22.6171C12.2418 23.1993 11.7354 23.6819 11.1361 24.0223C10.5115 24.3777 9.80501 24.5641 9.08639 24.5632C6.77833 24.5632 4.90772 22.6811 4.90772 20.3568C4.90772 18.0326 6.77833 16.1505 9.08639 16.1505C9.5233 16.1501 9.95751 16.2189 10.3729 16.3542L10.3789 11.3103C9.11786 11.1474 7.83671 11.2476 6.6163 11.6046C5.3959 11.9616 4.26273 12.5677 3.28829 13.3846C2.43444 14.1264 1.71661 15.0116 1.1671 16.0003C0.957987 16.3608 0.169003 17.8096 0.0734591 20.1609C0.0133688 21.4956 0.414171 22.8782 0.605257 23.4497V23.4617C0.725438 23.7982 1.19114 24.9465 1.95008 25.9146C2.56206 26.6911 3.28509 27.3732 4.0959 27.939V27.927L4.10792 27.939C6.50612 29.5687 9.16511 29.4617 9.16511 29.4617C9.6254 29.4431 11.1673 29.4617 12.9183 28.6319C14.8605 27.7119 15.9661 26.3412 15.9661 26.3412C16.6725 25.5222 17.2341 24.5889 17.627 23.5813C18.0753 22.4029 18.2249 20.9896 18.2249 20.4247V10.2623C18.285 10.2983 19.0854 10.8277 19.0854 10.8277C19.0854 10.8277 20.2385 11.5668 22.0376 12.0482C23.3284 12.3907 25.0674 12.4628 25.0674 12.4628V7.54501C24.4581 7.61111 23.2208 7.41882 21.9541 6.78727Z" fill="white"/>
</g>
</svg>
