<svg width="38" height="26" viewBox="0 0 38 26" fill="none" xmlns="http://www.w3.org/2000/svg">
<g id="&#240;&#159;&#166;&#134; icon &#34;youtube&#34;">
<path id="Vector" d="M36.7276 4.1008C36.2881 2.54054 35.0713 1.31686 33.5041 0.884285C30.6184 0.11283 19.0177 0.11283 19.0177 0.11283C19.0177 0.11283 7.4389 0.0943241 4.5231 0.884285C2.96399 1.31801 1.74146 2.54054 1.30658 4.1008C0.759506 7.05824 0.487704 10.0515 0.500427 13.0587C0.494644 16.0462 0.765289 19.0349 1.30658 21.9738C1.74146 23.5341 2.96399 24.7578 4.5231 25.1973C7.40883 25.9687 19.0177 25.9687 19.0177 25.9687C19.0177 25.9687 30.5895 25.9687 33.5041 25.1973C35.0713 24.7578 36.2881 23.5352 36.7276 21.9738C37.2585 19.0349 37.5176 16.0462 37.4991 13.0587C37.5176 10.0515 37.2643 7.05824 36.7276 4.1008ZM15.3119 18.5954V7.49775L24.9684 13.0587L15.3119 18.5954Z" fill="#F4F4F4"/>
</g>
</svg>
